<?xml version="1.0" encoding="utf-8"?>
<!-- Generator: Adobe Illustrator 17.0.0, SVG Export Plug-In . SVG Version: 6.00 Build 0)  -->
<!DOCTYPE svg PUBLIC "-//W3C//DTD SVG 1.1//EN" "http://www.w3.org/Graphics/SVG/1.1/DTD/svg11.dtd">
<svg version="1.1" id="Calque_1" xmlns="http://www.w3.org/2000/svg" xmlns:xlink="http://www.w3.org/1999/xlink" x="0px" y="0px"
	 width="16px" height="16px" viewBox="0 0 16 16" enable-background="new 0 0 16 16" xml:space="preserve">
<g>
	<polygon fill="#2E2E2E" points="3.971,12.291 8.157,7.947 3.98,3.74 5.943,1.793 12.021,7.917 5.964,14.207 	"/>
	<path fill="#FFFFFF" d="M5.94,2.5l5.381,5.423L5.95,13.5l-1.271-1.222l4.177-4.336L4.687,3.743L5.94,2.5 M5.945,1.086L5.235,1.79
		L3.983,3.033l-0.71,0.705l0.705,0.71l3.479,3.505l-3.499,3.632l-0.694,0.721l0.722,0.694l1.271,1.222l0.72,0.692l0.693-0.72
		l5.371-5.577l0.678-0.704l-0.689-0.694L6.65,1.796L5.945,1.086L5.945,1.086z"/>
</g>
</svg>
