<?xml version="1.0" encoding="utf-8"?>
<!-- Generator: Adobe Illustrator 17.0.0, SVG Export Plug-In . SVG Version: 6.00 Build 0)  -->
<!DOCTYPE svg PUBLIC "-//W3C//DTD SVG 1.1//EN" "http://www.w3.org/Graphics/SVG/1.1/DTD/svg11.dtd">
<svg version="1.1" id="Calque_1" xmlns="http://www.w3.org/2000/svg" xmlns:xlink="http://www.w3.org/1999/xlink" x="0px" y="0px"
	 width="16px" height="16px" viewBox="0 0 16 16" enable-background="new 0 0 16 16" xml:space="preserve">
<g>
	<polygon fill="#2E2E2E" points="1.793,5.964 3.708,3.971 8.053,8.157 12.26,3.98 14.207,5.942 8.083,12.021 	"/>
	<path fill="#FFFFFF" d="M3.722,4.679l4.336,4.177l4.199-4.168L13.5,5.94l-5.423,5.381L2.5,5.95L3.722,4.679 M3.695,3.264
		L3.001,3.986L1.779,5.257l-0.692,0.72l0.72,0.693l5.577,5.371l0.704,0.678l0.694-0.689l5.423-5.381l0.71-0.704l-0.704-0.71
		l-1.243-1.252l-0.705-0.71l-0.71,0.705L8.048,7.457L4.416,3.959L3.695,3.264L3.695,3.264z"/>
</g>
</svg>
