<?xml version="1.0" encoding="utf-8"?>
<!-- Generator: Adobe Illustrator 17.0.0, SVG Export Plug-In . SVG Version: 6.00 Build 0)  -->
<!DOCTYPE svg PUBLIC "-//W3C//DTD SVG 1.1//EN" "http://www.w3.org/Graphics/SVG/1.1/DTD/svg11.dtd">
<svg version="1.1" id="Calque_1" xmlns="http://www.w3.org/2000/svg" xmlns:xlink="http://www.w3.org/1999/xlink" x="0px" y="0px"
	 width="16px" height="16px" viewBox="0 0 16 16" enable-background="new 0 0 16 16" xml:space="preserve">
<g>
	<polygon fill="#2E2E2E" points="7.947,7.843 3.74,12.02 1.793,10.058 7.917,3.979 14.207,10.036 12.291,12.028 	"/>
	<path fill="#FFFFFF" d="M7.923,4.679L13.5,10.05l-1.222,1.271L7.941,7.144l-4.199,4.168L2.5,10.06L7.923,4.679 M7.912,3.281
		L7.218,3.969L1.796,9.35l-0.71,0.704l0.704,0.71l1.243,1.252l0.705,0.71l0.71-0.705l3.505-3.479l3.632,3.499l0.721,0.694
		l0.694-0.722l1.222-1.271l0.692-0.72l-0.72-0.693L8.616,3.959L7.912,3.281L7.912,3.281z"/>
</g>
</svg>
