<?xml version="1.0" encoding="utf-8"?>
<!-- Generator: Adobe Illustrator 17.0.0, SVG Export Plug-In . SVG Version: 6.00 Build 0)  -->
<!DOCTYPE svg PUBLIC "-//W3C//DTD SVG 1.1//EN" "http://www.w3.org/Graphics/SVG/1.1/DTD/svg11.dtd">
<svg version="1.1" id="Calque_1" xmlns="http://www.w3.org/2000/svg" xmlns:xlink="http://www.w3.org/1999/xlink" x="0px" y="0px"
	 width="16px" height="16px" viewBox="0 0 16 16" enable-background="new 0 0 16 16" xml:space="preserve">
<g>
	<polygon fill="#2E2E2E" points="3.979,8.083 10.036,1.793 12.028,3.708 7.843,8.053 12.02,12.26 10.058,14.207 	"/>
	<path fill="#FFFFFF" d="M10.05,2.5l1.271,1.222L7.144,8.059l4.168,4.199L10.06,13.5L4.679,8.077L10.05,2.5 M10.023,1.087
		l-0.693,0.72L3.959,7.384L3.28,8.088l0.689,0.694l5.381,5.423l0.704,0.71l0.71-0.704l1.252-1.243l0.71-0.705l-0.705-0.71
		L8.543,8.048l3.499-3.632l0.694-0.721l-0.722-0.694l-1.271-1.222L10.023,1.087L10.023,1.087z"/>
</g>
</svg>
